<?xml version="1.0" encoding="UTF-8"?>
<svg version="1.1" xmlns="http://www.w3.org/2000/svg" width="512" height="512">
<path d="M0 0 C17.16 0 34.32 0 52 0 C52 0.66 52 1.32 52 2 C53.01835937 2.14695313 54.03671875 2.29390625 55.0859375 2.4453125 C63.12814503 3.68855695 70.83715985 5.35371438 78.5625 7.9375 C79.28679199 8.17807129 80.01108398 8.41864258 80.75732422 8.66650391 C85.72518874 10.3895354 90.3523188 12.54956281 95 15 C95.94746094 15.49242187 96.89492188 15.98484375 97.87109375 16.4921875 C103.04618741 19.28059413 108.00762652 22.21948232 112.8515625 25.55078125 C115.68545117 27.46236797 118.6161846 29.19659918 121.56640625 30.921875 C122.03949219 31.27765625 122.51257813 31.6334375 123 32 C123 32.66 123 33.32 123 34 C123.58007812 34.26167969 124.16015625 34.52335937 124.7578125 34.79296875 C127.13098755 36.0705142 128.8800843 37.50585947 130.875 39.3125 C133.18631611 41.39396147 135.46477791 43.3560001 137.9375 45.25 C144.31868332 50.5122909 149.80538071 57.88738468 154 65 C154 65.66 154 66.32 154 67 C154.99 67.33 155.98 67.66 157 68 C158.1875 71.0625 158.1875 71.0625 159 74 C159.66 74 160.32 74 161 74 C165.82081178 82.63592133 170.35777431 91.29356066 174 100.5 C174.29011963 101.21591309 174.58023926 101.93182617 174.87915039 102.66943359 C176.83926392 107.79023759 177.56961691 112.53413482 178 118 C178.66 118 179.32 118 180 118 C180.08564209 118.63091553 180.17128418 119.26183105 180.25952148 119.91186523 C180.64783714 122.75435681 181.04258081 125.59591869 181.4375 128.4375 C181.57220703 129.43072266 181.70691406 130.42394531 181.84570312 131.44726562 C182.04389648 132.86362305 182.04389648 132.86362305 182.24609375 134.30859375 C182.36654053 135.18314209 182.4869873 136.05769043 182.61108398 136.95874023 C182.79922202 138.98664505 182.79922202 138.98664505 184 140 C184.08851529 142.59359322 184.11525945 145.16039691 184.09765625 147.75390625 C184.09553383 148.91707619 184.09553383 148.91707619 184.09336853 150.10374451 C184.08775345 152.59003494 184.07519846 155.0762366 184.0625 157.5625 C184.05748694 159.24413933 184.0529237 160.92578006 184.04882812 162.60742188 C184.03777913 166.73831566 184.02050445 170.86914276 184 175 C183.34 175 182.68 175 182 175 C182.04125 176.2375 182.0825 177.475 182.125 178.75 C182.14371192 184.61618748 181.08918033 190.25262878 180 196 C179.34 196 178.68 196 178 196 C177.95875 197.155 177.9175 198.31 177.875 199.5 C176.1801081 214.00827464 167.92782901 227.45178983 161 240 C160.34 240 159.68 240 159 240 C158.9071875 240.55558594 158.814375 241.11117187 158.71875 241.68359375 C156.07860326 250.19232753 147.04928273 259.511454 141 266 C140.34 266 139.68 266 139 266 C138.74347656 266.59167969 138.48695313 267.18335938 138.22265625 267.79296875 C133.38743657 276.52108095 121.23910385 283.32807928 113.0390625 288.66796875 C111.39660107 289.74091769 109.78632915 290.86305482 108.1875 292 C99.64685559 297.35883571 90.34159345 301.27138116 81 305 C80.31550781 305.28746094 79.63101563 305.57492187 78.92578125 305.87109375 C73.77141931 307.95661126 68.46546325 309.11676815 63.04296875 310.30859375 C60.75735027 310.82791913 58.49502522 311.45149243 56.25 312.125 C46.90479348 314.64101714 37.14426316 314.16097426 27.54394531 314.17700195 C25.88572552 314.18327651 24.22750709 314.18992417 22.56929016 314.19691467 C17.15557815 314.21781708 11.74186626 314.22829524 6.328125 314.23828125 C4.45942928 314.24233219 2.5907337 314.24644921 0.72203827 314.25063133 C-8.04890474 314.26964244 -16.81983948 314.28388916 -25.59079909 314.2922433 C-35.70662773 314.30203946 -45.82223894 314.32843777 -55.9379909 314.36874419 C-63.76833621 314.39887335 -71.59861896 314.41370861 -79.42902112 314.41702431 C-84.10222135 314.41937585 -88.77518816 314.42835197 -93.44832611 314.45348549 C-97.83808428 314.47671921 -102.22745441 314.48101857 -106.61725807 314.47072411 C-108.22773592 314.4702277 -109.83823263 314.47657887 -111.44865227 314.49028015 C-113.64736742 314.50794126 -115.84468047 314.50092354 -118.043396 314.48774719 C-119.27336178 314.49013555 -120.50332756 314.4925239 -121.77056503 314.49498463 C-125.74381863 313.88599282 -127.36457838 313.03723242 -130 310 C-130.61803246 306.71509266 -130.61803246 306.71509266 -130.60800171 302.73017883 C-130.6129794 301.99651083 -130.61795709 301.26284282 -130.62308562 300.50694245 C-130.6336672 298.04740569 -130.60850049 295.5895403 -130.58349609 293.13012695 C-130.58372277 291.36763353 -130.58613638 289.60513922 -130.59057617 287.84265137 C-130.59628808 283.05554245 -130.57097386 278.26904124 -130.53990126 273.48204827 C-130.51238797 268.47903566 -130.51236296 263.47602264 -130.50918579 258.47294617 C-130.49997968 250.0738979 -130.472436 241.67507725 -130.43212891 233.27612305 C-130.37526276 221.41552136 -130.35297689 209.55503409 -130.33684421 197.69431746 C-130.32440457 189.49376936 -130.30371776 181.29323878 -130.2814641 173.09271216 C-130.27609609 171.10013379 -130.27096009 169.10755477 -130.26605177 167.11497521 C-130.25178108 161.43854247 -130.2324023 155.76217571 -130.20457458 150.08579254 C-130.19682919 148.3623923 -130.19077777 146.63898354 -130.18649673 144.91557121 C-130.18031508 142.57328701 -130.16798039 140.23111831 -130.15390015 137.88887024 C-130.14832785 136.57497975 -130.14275555 135.26108927 -130.13701439 133.90738392 C-130 131 -130 131 -129 130 C-128.57797911 127.83828151 -128.18863299 125.67017337 -127.8125 123.5 C-126.1592069 114.65160113 -123.25143706 106.37463492 -120 98 C-119.68289062 97.18273437 -119.36578125 96.36546875 -119.0390625 95.5234375 C-115.63021534 87.42351626 -111.15518719 79.73326504 -107 72 C-106.34 72 -105.68 72 -105 72 C-104.90847656 71.43539062 -104.81695312 70.87078125 -104.72265625 70.2890625 C-103.81133962 67.40240551 -102.3725298 65.70006517 -100.4375 63.375 C-97.56303595 59.89592498 -94.75545853 56.38641156 -92 52.8125 C-88.89235682 48.91571121 -85.5894611 45.65067068 -81.7578125 42.47265625 C-79.83193205 40.90948331 -79.83193205 40.90948331 -77.625 38.5625 C-76 37 -76 37 -74 37 C-74 36.34 -74 35.68 -74 35 C-71.68107859 33.2173863 -69.36337057 31.563895 -66.9375 29.9375 C-65.85190796 29.20430542 -65.85190796 29.20430542 -64.74438477 28.45629883 C-45.85703166 15.80651822 -25.78417602 5.55493296 -2.94140625 2.45703125 C-2.30074219 2.30621094 -1.66007813 2.15539063 -1 2 C-0.67 1.34 -0.34 0.68 0 0 Z " fill="#FFBB00" transform="translate(229,33)"/>
<path d="M0 0 C1.23169922 0.00966797 1.23169922 0.00966797 2.48828125 0.01953125 C24.44345494 1.17057919 47.37053691 16.59740881 61.59960938 32.34082031 C65.6746906 37.16896745 68.86237782 42.53567191 72 48 C72.57621094 48.96421875 73.15242187 49.9284375 73.74609375 50.921875 C83.87932902 69.21729229 85.42341029 94.64243245 80.5 114.75 C72.83747234 140.06612494 56.53875382 160.08163384 33.6875 173.1875 C27.39235294 176.49741256 20.78092528 178.88527076 14 181 C12.83726562 181.37253906 11.67453125 181.74507812 10.4765625 182.12890625 C4.28951404 183.62821026 -2.11487737 183.24875947 -8.4375 183.1875 C-9.72849609 183.18685547 -11.01949219 183.18621094 -12.34960938 183.18554688 C-21.85952381 183.14047619 -21.85952381 183.14047619 -23 182 C-24.175625 181.938125 -25.35125 181.87625 -26.5625 181.8125 C-45.28950125 179.82405454 -62.14617618 168.02910323 -75 155 C-75.66515625 154.33355469 -76.3303125 153.66710937 -77.015625 152.98046875 C-93.71106818 135.11935274 -100.61847598 111.44106433 -100.2109375 87.5390625 C-99.32468541 62.03469676 -87.5514648 39.8607837 -69.2734375 22.39453125 C-59.08843177 13.66667236 -47.86677298 7.73432204 -35 4 C-34.00613281 3.6596875 -33.01226562 3.319375 -31.98828125 2.96875 C-21.5195464 -0.42503594 -10.86779158 -0.3161143 0 0 Z " fill="#FFFEFD" transform="translate(261,95)"/>
<path d="M0 0 C5.94 0 11.88 0 18 0 C18 16.17 18 32.34 18 49 C19.65 49.33 21.3 49.66 23 50 C23.20625 49.34257812 23.4125 48.68515625 23.625 48.0078125 C25.52600302 43.84936838 28.21463225 40.48152569 31 36.875 C32.08392601 35.45618175 33.1672821 34.03692788 34.25 32.6171875 C34.72953125 31.99440918 35.2090625 31.37163086 35.703125 30.72998047 C36.855897 29.19222776 37.93394088 27.59908868 39 26 C41.06298828 25.65942383 41.06298828 25.65942383 43.5703125 25.70703125 C44.46621094 25.71669922 45.36210937 25.72636719 46.28515625 25.73632812 C47.69087891 25.7740332 47.69087891 25.7740332 49.125 25.8125 C50.54232422 25.83280273 50.54232422 25.83280273 51.98828125 25.85351562 C54.32608779 25.88893694 56.66276237 25.93832729 59 26 C58.20900438 29.63382915 56.96751264 31.56793763 54.5625 34.4375 C51.19075425 38.54090847 47.87476299 42.67484023 44.625 46.875 C44.19646729 47.42212646 43.76793457 47.96925293 43.32641602 48.53295898 C41.23054732 51.24376065 39.38199179 53.85634835 38 57 C38.78375 58.03125 39.5675 59.0625 40.375 60.125 C44.17647728 65.19363637 47.85586163 70.34698555 51.51953125 75.515625 C53.0598015 77.68830439 54.61897625 79.83996066 56.19921875 81.984375 C56.83472656 82.85578125 57.47023438 83.7271875 58.125 84.625 C58.68445313 85.38039063 59.24390625 86.13578125 59.8203125 86.9140625 C61 89 61 89 61 93 C43.1867477 94.62392903 43.1867477 94.62392903 38.6171875 91.23046875 C37.10526839 88.55653181 36.07717747 85.87613713 35 83 C33.66058436 80.71338804 32.30102306 78.47952973 30.875 76.25 C30.23304688 75.20328125 29.59109375 74.1565625 28.9296875 73.078125 C27.58539532 70.93378848 26.19035174 68.82079104 24.7578125 66.734375 C23 64 23 64 23 62 C20.525 62.495 20.525 62.495 18 63 C18 72.9 18 82.8 18 93 C12.06 93 6.12 93 0 93 C0 62.31 0 31.62 0 0 Z " fill="#FFBB00" transform="translate(240,377)"/>
<path d="M0 0 C1.24072266 -0.020625 2.48144531 -0.04125 3.75976562 -0.0625 C12.05703351 -0.09801533 17.45833298 0.21498196 23.875 5.8125 C25.9375 8.25 25.9375 8.25 25.9375 10.25 C26.5975 10.25 27.2575 10.25 27.9375 10.25 C28.8876315 13.45332234 29.05881773 16.3260113 29.05102539 19.66113281 C29.05094986 20.74195129 29.05087433 21.82276978 29.05079651 22.93634033 C29.04563522 24.09687927 29.04047394 25.25741821 29.03515625 26.453125 C29.0337413 27.64605164 29.03232635 28.83897827 29.03086853 30.0680542 C29.02527038 33.87872829 29.01271819 37.68934366 29 41.5 C28.99498476 44.08333248 28.9904219 46.66666589 28.98632812 49.25 C28.97530155 55.58335596 28.95803814 61.91666803 28.9375 68.25 C24.3175 68.25 19.6975 68.25 14.9375 68.25 C13.4591774 65.29335481 13.87717217 62.50770263 13.9375 59.25 C13.25042969 59.73210937 12.56335938 60.21421875 11.85546875 60.7109375 C10.95441406 61.34257812 10.05335938 61.97421875 9.125 62.625 C8.23167969 63.25148438 7.33835937 63.87796875 6.41796875 64.5234375 C2.51155165 67.24254988 0.59461745 68.5003713 -4.16796875 68.4453125 C-5.15087891 68.43886719 -6.13378906 68.43242187 -7.14648438 68.42578125 C-8.68272461 68.40064453 -8.68272461 68.40064453 -10.25 68.375 C-11.28576172 68.36597656 -12.32152344 68.35695313 -13.38867188 68.34765625 C-15.94684685 68.3240786 -18.50455748 68.2911703 -21.0625 68.25 C-21.0625 67.59 -21.0625 66.93 -21.0625 66.25 C-21.619375 66.04375 -22.17625 65.8375 -22.75 65.625 C-28.11995659 62.43205284 -30.46750609 58.10784757 -32.0625 52.25 C-32.73606871 45.12066884 -32.95945728 38.40970666 -29.0625 32.25 C-25.10638705 28.14424685 -21.87587678 25.35321264 -15.96801758 25.13647461 C-14.10632935 25.14432983 -14.10632935 25.14432983 -12.20703125 25.15234375 C-11.21457649 25.15446617 -11.21457649 25.15446617 -10.20207214 25.15663147 C-8.09300172 25.16222004 -5.98403823 25.17477035 -3.875 25.1875 C-2.44336091 25.19251648 -1.01172015 25.19707913 0.41992188 25.20117188 C3.92581588 25.2121857 7.4316475 25.22944245 10.9375 25.25 C10.2775 21.95 9.6175 18.65 8.9375 15.25 C7.30953491 15.25785522 7.30953491 15.25785522 5.64868164 15.26586914 C1.63632018 15.28391836 -2.37603767 15.29543171 -6.38842773 15.30493164 C-8.12769168 15.30997204 -9.86695136 15.3168043 -11.60620117 15.32543945 C-14.10075937 15.33751792 -16.59526173 15.34323108 -19.08984375 15.34765625 C-19.87213852 15.35281754 -20.65443329 15.35797882 -21.46043396 15.36329651 C-23.32817114 15.36349226 -25.19579204 15.31199694 -27.0625 15.25 C-28.80206658 13.51043342 -28.43440386 11.0563378 -28.625 8.6875 C-28.70878906 7.67558594 -28.79257812 6.66367187 -28.87890625 5.62109375 C-28.93949219 4.83863281 -29.00007813 4.05617188 -29.0625 3.25 C-19.41383657 0.23479268 -10.06079279 0.04194181 0 0 Z M-13.0625 40.25 C-14.25210077 44.15008354 -14.583112 47.94847 -13.0625 51.75 C-10.01199572 54.03787821 -7.87083807 54.18857519 -4.0625 54.25 C1.37100919 53.09715109 6.93819179 51.14676185 10.9375 47.25 C11.23234261 45.0121688 11.23234261 45.0121688 11.08984375 42.6015625 C11.05685181 41.38073975 11.05685181 41.38073975 11.02319336 40.13525391 C10.99491455 39.51312012 10.96663574 38.89098633 10.9375 38.25 C7.50007082 38.19197302 4.06276747 38.15639514 0.625 38.125 C-0.83969727 38.09986328 -0.83969727 38.09986328 -2.33398438 38.07421875 C-3.74067383 38.06455078 -3.74067383 38.06455078 -5.17578125 38.0546875 C-6.47189331 38.03897705 -6.47189331 38.03897705 -7.79418945 38.02294922 C-10.34430721 38.09909832 -10.34430721 38.09909832 -13.0625 40.25 Z " fill="#FFBB00" transform="translate(337.0625,401.75)"/>
<path d="M0 0 C0.98484375 -0.00708984 1.9696875 -0.01417969 2.984375 -0.02148438 C12.11927915 0.05768479 18.81602664 2.09365049 25.61328125 8.41015625 C32.03238295 15.79710477 32.55469198 24.95849736 32.5625 34.3125 C32.57474609 35.07691406 32.58699219 35.84132813 32.59960938 36.62890625 C32.62190995 45.38559931 30.89256603 54.46896396 24.9375 61.1875 C18.95833333 66.4375 18.95833333 66.4375 15.375 66.4375 C15.375 67.0975 15.375 67.7575 15.375 68.4375 C5.145 68.4375 -5.085 68.4375 -15.625 68.4375 C-15.625 67.7775 -15.625 67.1175 -15.625 66.4375 C-16.16125 66.355 -16.6975 66.2725 -17.25 66.1875 C-23.05363323 64.35477372 -26.63775233 60.91378692 -29.58984375 55.75 C-34.86547461 43.96443975 -33.96996362 27.6456723 -30.625 15.4375 C-28.8125 12 -28.8125 12 -26.625 9.4375 C-25.92375 8.57125 -25.2225 7.705 -24.5 6.8125 C-17.20160823 0.78339375 -9.19390405 -0.188002 0 0 Z M-11.625 18.4375 C-15.82744994 28.39886283 -15.32195214 37.85760145 -12.671875 48.08984375 C-11.40773585 50.92472297 -10.31703145 51.92113291 -7.625 53.4375 C-1.78171188 54.89587509 3.79829586 54.82751606 9.375 52.4375 C14.31815479 47.49434521 13.5578147 41.02662271 13.5625 34.5 C13.58086914 33.15905273 13.58086914 33.15905273 13.59960938 31.79101562 C13.61238282 26.05573852 13.11623886 22.04935829 9.875 17.1875 C3.13160383 12.46712268 -5.14518469 14.11762312 -11.625 18.4375 Z " fill="#FFBB00" transform="translate(195.625,401.5625)"/>
<path d="M0 0 C5.94 0 11.88 0 18 0 C18.495 36.63 18.495 36.63 19 74 C31.13159177 74.28934899 31.13159177 74.28934899 43.26342773 74.56811523 C44.77849282 74.60622264 46.2935489 74.64469043 47.80859375 74.68359375 C48.60237427 74.70006958 49.39615479 74.71654541 50.21398926 74.73352051 C55.8859282 74.8859282 55.8859282 74.8859282 57 76 C57.07271741 78.35313555 57.08370868 80.70833668 57.0625 83.0625 C57.05347656 84.35285156 57.04445312 85.64320313 57.03515625 86.97265625 C57.02355469 87.97167969 57.01195312 88.97070312 57 90 C54.15643315 91.60907648 52.1353771 92.24769226 48.87402344 92.22705078 C48.07349548 92.22689972 47.27296753 92.22674866 46.44818115 92.22659302 C45.59387512 92.21627045 44.73956909 92.20594788 43.859375 92.1953125 C42.97719299 92.1924826 42.09501099 92.18965271 41.18609619 92.18673706 C38.37392501 92.17555961 35.5620746 92.15045951 32.75 92.125 C30.84115044 92.11496705 28.93229588 92.10584175 27.0234375 92.09765625 C22.34883511 92.07562824 17.67447191 92.04111511 13 92 C13 91.34 13 90.68 13 90 C12.443125 89.896875 11.88625 89.79375 11.3125 89.6875 C5.62355721 87.99619268 2.84571546 85.15031543 0 80 C-0.36028331 77.18477519 -0.5095794 74.77766079 -0.45410156 71.97509766 C-0.45468567 71.19393585 -0.45526978 70.41277405 -0.45587158 69.60794067 C-0.45309947 67.04285215 -0.42205033 64.47894634 -0.390625 61.9140625 C-0.38315947 60.1290246 -0.37746801 58.34397848 -0.37347412 56.55892944 C-0.3582423 51.87340445 -0.31898184 47.18837982 -0.2746582 42.50305176 C-0.23365243 37.7169471 -0.21545179 32.93076115 -0.1953125 28.14453125 C-0.15248487 18.76276625 -0.0821553 9.38150312 0 0 Z " fill="#FFBB00" transform="translate(99,378)"/>
<path d="M0 0 C2.66150714 0.82880602 4.19164422 1.74878753 6.3425293 3.49707031 C7.04651855 4.059021 7.75050781 4.62097168 8.47583008 5.19995117 C9.59513916 6.11272827 9.59513916 6.11272827 10.73706055 7.04394531 C17.79482823 12.67925662 24.96800704 18.07457907 32.35888672 23.265625 C37.36808871 26.81930548 41.99757064 30.67180618 46.54956055 34.79394531 C46.21669233 37.70839839 45.97851113 39.35389681 43.89819336 41.48803711 C43.19017578 41.984729 42.4821582 42.4814209 41.75268555 42.99316406 C40.57138062 43.83971558 40.57138062 43.83971558 39.36621094 44.70336914 C38.51921631 45.29013428 37.67222168 45.87689941 36.79956055 46.48144531 C35.05267396 47.72773059 33.30658244 48.97513103 31.5612793 50.22363281 C30.27423096 51.13580566 30.27423096 51.13580566 28.96118164 52.06640625 C25.78649307 54.34056057 22.69179435 56.7061212 19.61206055 59.10644531 C18.60272461 59.88375 17.59338867 60.66105469 16.5534668 61.46191406 C14.44589668 63.09809008 12.35175917 64.74583735 10.2644043 66.40722656 C9.19300043 67.24473578 8.12139322 68.08198495 7.04956055 68.91894531 C6.11112305 69.66402344 5.17268555 70.40910156 4.20581055 71.17675781 C1.29868002 72.94668728 -0.1149176 73.33082725 -3.45043945 72.79394531 C-6.26031069 69.98407407 -5.7101738 68.20115455 -5.72509766 64.26464844 C-5.73020859 63.5945726 -5.73531952 62.92449677 -5.74058533 62.2341156 C-5.75451029 60.01438521 -5.75352262 57.79496424 -5.7512207 55.57519531 C-5.75510571 54.0358468 -5.75943997 52.49649936 -5.76420593 50.95715332 C-5.77167413 47.72904995 -5.77137232 44.50105594 -5.76611328 41.27294922 C-5.76031412 37.1298035 -5.77725714 32.98710416 -5.80045795 28.84403229 C-5.8151662 25.66478851 -5.81607106 22.485653 -5.81294823 19.30638123 C-5.81346279 17.77850967 -5.81872572 16.25063227 -5.82876015 14.72279358 C-5.84105322 12.58931169 -5.83437733 10.45670926 -5.82275391 8.32324219 C-5.82338333 7.10793823 -5.82401276 5.89263428 -5.82466125 4.64050293 C-5.70116806 3.70113892 -5.57767487 2.7617749 -5.45043945 1.79394531 C-2.45043945 -0.20605469 -2.45043945 -0.20605469 0 0 Z " fill="#FFBB04" transform="translate(239.450439453125,150.2060546875)"/>
<path d="M0 0 C5.94 0 11.88 0 18 0 C18.33 24.75 18.66 49.5 19 75 C22.80431832 77.18284356 22.80431832 77.18284356 26.625 77.4375 C28.295625 77.7159375 28.295625 77.7159375 30 78 C32.35119399 81.52679099 32.21443452 83.02879485 32.125 87.1875 C32.10695313 88.27417969 32.08890625 89.36085938 32.0703125 90.48046875 C32.04710937 91.31191406 32.02390625 92.14335937 32 93 C28.14686872 93.23382288 24.29557088 93.37489753 20.4375 93.5 C18.80844727 93.60054687 18.80844727 93.60054687 17.14648438 93.703125 C9.20693274 93.89618401 9.20693274 93.89618401 5.69580078 91.2890625 C0.74432093 85.76182918 -0.14823986 81.43145421 -0.11352539 74.13208008 C-0.11367142 73.33184921 -0.11381744 72.53161835 -0.1139679 71.70713806 C-0.11327105 69.06124158 -0.10548929 66.41541544 -0.09765625 63.76953125 C-0.09579126 61.93535907 -0.09436774 60.1011864 -0.09336853 58.26701355 C-0.08954972 53.43863551 -0.07972484 48.61028754 -0.06866455 43.78192139 C-0.05843677 38.85526944 -0.05386798 33.92861263 -0.04882812 29.00195312 C-0.03810203 19.33462008 -0.02051035 9.66731724 0 0 Z " fill="#FFBB00" transform="translate(381,377)"/>
</svg>
